<svg xmlns="http://www.w3.org/2000/svg" xmlns:xlink="http://www.w3.org/1999/xlink" width="4000" zoomAndPan="magnify" viewBox="0 0 3000 2999.999989" height="4000" preserveAspectRatio="xMidYMid meet" version="1.0"><path fill="#000000" d="M 412.351562 1816.050781 L 530.289062 1698.226562 L 589.125 1992.789062 L 707.023438 1875 L 795.375 2316.898438 L 1087.875 2609.363281 C 998.886719 2105.960938 744.601562 1660.125 380.476562 1331.289062 C 483.636719 1240.835938 601.3125 1164.789062 732.148438 1108.125 C 881.363281 1043.4375 1035 1010.476562 1187.511719 1003.164062 L 1187.511719 625.011719 C 1187.511719 383.4375 991.6875 187.5 750 187.5 C 508.3125 187.5 312.488281 383.4375 312.488281 625.011719 L 312.488281 646.875 C 386.25 682.050781 437.511719 756.601562 437.511719 843.75 C 437.511719 964.613281 339.488281 1062.488281 218.738281 1062.488281 C 97.875 1062.488281 0 964.613281 0 843.75 C 0 756.601562 51.261719 682.011719 124.988281 646.875 L 124.988281 625.011719 C 124.988281 279.789062 404.773438 0 750 0 C 1095.226562 0 1375.011719 279.789062 1375.011719 625.011719 L 1375.011719 1006.875 C 1494.976562 1018.6875 1612.199219 1048.011719 1724.136719 1091.960938 L 2375.023438 875.0625 L 2375.023438 1250.0625 L 2625 1250.0625 L 2321.175781 1553.886719 C 2392.085938 1650.449219 2453.363281 1757.136719 2500.011719 1875.039062 L 3000 1624.988281 L 2875.011719 1999.988281 L 3000 2374.988281 L 2500.011719 2125.011719 L 2310.375 2245.726562 L 2500.011719 2625 L 2250 2625 L 2250 2875.011719 L 1888.875 2513.925781 L 1125 3000 L 0 1875 L 353.511719 1521.488281 Z M 1125 1437.488281 C 1125 1368.414062 1069.085938 1312.5 1000.011719 1312.5 C 931.011719 1312.5 874.988281 1368.414062 874.988281 1437.488281 C 874.988281 1506.5625 931.011719 1562.476562 1000.011719 1562.476562 C 1069.085938 1562.511719 1125 1506.601562 1125 1437.488281 Z M 1125 1437.488281 " fill-opacity="1" fill-rule="nonzero"/></svg>